#N canvas 0 22 1280 752 10;
#X floatatom 178 294 0 0 0 0 - - -;
#X floatatom 156 294 0 0 0 0 - - -;
#X floatatom 133 294 0 0 0 0 - - -;
#X floatatom 110 293 0 0 0 0 - - -;
#X floatatom 87 293 0 0 0 0 - - -;
#X floatatom 64 293 0 0 0 0 - - -;
#X floatatom 42 293 0 0 0 0 - - -;
#X floatatom 19 293 0 0 0 0 - - -;
#X obj 260 330 modal_change;
#X obj 799 371 + 60;
#X obj 593 167 tgl 15 0 empty empty empty 17 7 0 10 -262144 -1 -1 0
1;
#X obj 799 343 gate 1 0;
#X obj 920 254 comment 35 9 helvetica ? -4.7104e+06 0 0 0 13th;
#X floatatom 918 234 0 0 0 0 - - -;
#X obj 896 254 comment 35 9 helvetica ? -4.7104e+06 0 0 0 11th;
#X obj 873 254 comment 35 9 helvetica ? -4.7104e+06 0 0 0 9th;
#X floatatom 895 234 0 0 0 0 - - -;
#X floatatom 871 234 0 0 0 0 - - -;
#X floatatom 848 233 0 0 0 0 - - -;
#X obj 847 253 comment 35 9 helvetica ? -4.7104e+06 0 0 0 7th;
#X obj 724 362 + 48;
#X obj 698 251 comment 35 9 helvetica ? -4.7104e+06 0 0 0 5th;
#X obj 672 250 comment 35 9 helvetica ? -4.7104e+06 0 0 0 3rd;
#X floatatom 698 231 0 0 0 0 - - -;
#X floatatom 674 231 0 0 0 0 - - -;
#X floatatom 650 230 0 0 0 0 - - -;
#X obj 644 250 comment 35 9 helvetica ? -4.7104e+06 0 0 0 Root;
#X obj 65 538 modal_triad;
#X obj 133 419 t f b;
#X obj 437 4 mode_buttons;
#X obj 2 3 root_note;
#X obj 634 463 outlet;
#X obj 2 143 degree;
#X obj 230 451 tgl 15 0 empty empty empty 17 7 0 10 -262144 -1 -1 1
1;
#X obj 262 423 loadbang;
#X obj 547 502 -;
#X floatatom 557 551 5 0 0 0 - - -;
#X obj 589 503 -;
#X floatatom 599 552 5 0 0 0 - - -;
#X text 611 166 Jazz chords;
#X connect 0 0 27 9;
#X connect 1 0 27 8;
#X connect 2 0 27 7;
#X connect 3 0 27 6;
#X connect 4 0 27 5;
#X connect 5 0 27 4;
#X connect 6 0 27 3;
#X connect 7 0 27 2;
#X connect 8 0 7 0;
#X connect 8 1 6 0;
#X connect 8 2 5 0;
#X connect 8 3 4 0;
#X connect 8 4 3 0;
#X connect 8 5 2 0;
#X connect 8 6 1 0;
#X connect 8 7 0 0;
#X connect 9 0 31 0;
#X connect 10 0 11 0;
#X connect 11 0 9 0;
#X connect 13 0 11 1;
#X connect 16 0 11 1;
#X connect 17 0 11 1;
#X connect 18 0 11 1;
#X connect 20 0 31 0;
#X connect 23 0 20 0;
#X connect 23 0 37 0;
#X connect 24 0 20 0;
#X connect 24 0 35 0;
#X connect 25 0 20 0;
#X connect 25 0 35 1;
#X connect 25 0 37 1;
#X connect 27 0 25 0;
#X connect 27 1 24 0;
#X connect 27 2 23 0;
#X connect 27 3 18 0;
#X connect 27 4 17 0;
#X connect 27 5 16 0;
#X connect 27 6 13 0;
#X connect 28 0 27 0;
#X connect 29 0 8 1;
#X connect 30 0 8 0;
#X connect 32 0 28 0;
#X connect 33 0 27 1;
#X connect 34 0 33 0;
#X connect 35 0 36 0;
#X connect 37 0 38 0;
#X coords 0 -1 1 1 950 200 2 0 0;
