#N canvas -1559 -293 886 734 10;
#X obj 1 219 feigenbaum;
#X obj 110 196 metro;
#X msg 75 171 0;
#X msg 25 173 1;
#X obj 238 144 bng 15 250 50 0 empty empty empty 17 7 0 10 #fcfcfc #000000 #000000;
#X floatatom 53 426 5 0 0 0 - - - 0;
#X obj 279 395 modal_change;
#X floatatom 277 444 5 0 0 0 - - - 0;
#X floatatom 297 444 5 0 0 0 - - - 0;
#X floatatom 317 444 5 0 0 0 - - - 0;
#X floatatom 341 444 5 0 0 0 - - - 0;
#X floatatom 363 444 5 0 0 0 - - - 0;
#X floatatom 386 444 5 0 0 0 - - - 0;
#X floatatom 409 444 5 0 0 0 - - - 0;
#X floatatom 431 444 5 0 0 0 - - - 0;
#X obj 70 675 noteout;
#X obj 50 588 + 60;
#X obj 49 620 makenote 100 4000;
#X obj 236 527 +;
#X msg 225 506 0;
#X obj 87 455 route 1 2 3 4 5 6 7 8;
#X obj 274 528 +;
#X msg 263 507 0;
#X obj 310 529 +;
#X msg 299 508 0;
#X obj 344 529 +;
#X msg 333 508 0;
#X obj 97 529 +;
#X msg 86 508 0;
#X obj 133 528 +;
#X msg 122 507 0;
#X obj 166 528 +;
#X msg 155 507 0;
#X obj 199 527 +;
#X msg 188 506 0;
#X floatatom 181 587 5 0 0 0 - - - 0;
#X obj 53 368 * 8;
#X obj 53 397 int;
#X obj 40 139 bng 25 250 50 0 empty empty empty 17 7 0 10 #fc0400 #000000 #000000;
#X obj 15 139 bng 25 250 50 0 empty empty empty 17 7 0 10 #00fc04 #000000 #000000;
#X obj 52 526 +;
#X msg 41 505 0;
#X obj 26 560 + 48;
#X obj 315 130 mode_major;
#X text 256 144 Reset;
#X msg 140 138 200;
#X floatatom 141 159 5 0 0 0 - - - 0;
#X obj 0 1 root_note;
#X connect 0 0 36 0;
#X connect 1 0 41 0;
#X connect 1 0 0 0;
#X connect 2 0 1 0;
#X connect 3 0 1 0;
#X connect 4 0 0 1;
#X connect 5 0 20 0;
#X connect 6 0 7 0;
#X connect 6 1 8 0;
#X connect 6 2 9 0;
#X connect 6 3 10 0;
#X connect 6 4 11 0;
#X connect 6 5 12 0;
#X connect 6 6 13 0;
#X connect 6 7 14 0;
#X connect 7 0 27 1;
#X connect 7 0 40 1;
#X connect 8 0 29 1;
#X connect 9 0 31 1;
#X connect 10 0 33 1;
#X connect 11 0 18 1;
#X connect 12 0 21 1;
#X connect 13 0 23 1;
#X connect 14 0 25 1;
#X connect 16 0 17 0;
#X connect 17 0 15 0;
#X connect 17 1 15 1;
#X connect 18 0 35 0;
#X connect 19 0 18 0;
#X connect 20 0 28 0;
#X connect 20 1 30 0;
#X connect 20 2 32 0;
#X connect 20 3 34 0;
#X connect 20 4 19 0;
#X connect 20 5 22 0;
#X connect 20 6 24 0;
#X connect 20 7 26 0;
#X connect 21 0 35 0;
#X connect 22 0 21 0;
#X connect 23 0 35 0;
#X connect 24 0 23 0;
#X connect 25 0 35 0;
#X connect 26 0 25 0;
#X connect 27 0 35 0;
#X connect 28 0 27 0;
#X connect 29 0 35 0;
#X connect 30 0 29 0;
#X connect 31 0 35 0;
#X connect 32 0 31 0;
#X connect 33 0 35 0;
#X connect 34 0 33 0;
#X connect 35 0 16 0;
#X connect 36 0 37 0;
#X connect 37 0 5 0;
#X connect 38 0 2 0;
#X connect 39 0 3 0;
#X connect 40 0 42 0;
#X connect 41 0 40 0;
#X connect 42 0 17 0;
#X connect 43 0 6 1;
#X connect 45 0 46 0;
#X connect 46 0 1 1;
#X connect 47 0 6 0;
#X coords 0 -1 1 1 430 275 2 0 0;
