#N canvas 5941 1031 898 1439 10;
#X obj 78 191 metro;
#X msg 76 169 0;
#X msg 26 171 1;
#X floatatom 148 148 5 0 0 0 - - - 0;
#X obj 169 184 bng 15 250 50 0 empty empty empty 17 7 0 10 #fcfcfc #000000 #000000;
#X floatatom 24 370 5 0 0 0 - - - 0;
#X obj 149 295 modal_change;
#X floatatom 147 344 5 0 0 0 - - - 0;
#X floatatom 167 344 5 0 0 0 - - - 0;
#X floatatom 187 344 5 0 0 0 - - - 0;
#X floatatom 211 344 5 0 0 0 - - - 0;
#X floatatom 233 344 5 0 0 0 - - - 0;
#X floatatom 256 344 5 0 0 0 - - - 0;
#X floatatom 279 344 5 0 0 0 - - - 0;
#X floatatom 301 344 5 0 0 0 - - - 0;
#X obj 215 666 noteout;
#X obj 201 584 + 60;
#X obj 254 478 +;
#X msg 243 457 0;
#X obj 105 406 route 1 2 3 4 5 6 7 8;
#X obj 292 479 +;
#X msg 281 458 0;
#X obj 328 480 +;
#X msg 317 459 0;
#X obj 362 480 +;
#X msg 351 459 0;
#X obj 115 480 +;
#X msg 104 459 0;
#X obj 151 479 +;
#X msg 140 458 0;
#X obj 184 479 +;
#X msg 173 458 0;
#X obj 217 478 +;
#X msg 206 457 0;
#X floatatom 199 538 5 0 0 0 - - - 0;
#X obj 23 316 * 8;
#X obj 24 341 int;
#X obj 0 1 root_note;
#X obj 41 137 bng 25 250 50 0 empty empty empty 17 7 0 10 #fc0400 #000000 #000000;
#X obj 16 137 bng 25 250 50 0 empty empty empty 17 7 0 10 #00fc04 #000000 #000000;
#X obj 49 506 +;
#X msg 32 480 0;
#X obj 49 542 + 48;
#X obj 230 126 mode_major;
#X text 191 183 Reset;
#X obj 194 611 makenote 100 4;
#X obj 48 608 makenote 100 400;
#X obj 69 663 noteout;
#X floatatom 83 310 5 0 0 0 - - - 0;
#X floatatom 136 639 5 0 0 0 - - - 0;
#X floatatom 276 641 5 0 0 0 - - - 0;
#X obj 5 212 feigenbaum;
#X connect 0 0 41 0;
#X connect 0 0 51 0;
#X connect 1 0 0 0;
#X connect 2 0 0 0;
#X connect 3 0 0 1;
#X connect 4 0 51 1;
#X connect 5 0 19 0;
#X connect 6 0 7 0;
#X connect 6 1 8 0;
#X connect 6 2 9 0;
#X connect 6 3 10 0;
#X connect 6 4 11 0;
#X connect 6 5 12 0;
#X connect 6 6 13 0;
#X connect 6 7 14 0;
#X connect 7 0 26 1;
#X connect 7 0 40 1;
#X connect 8 0 28 1;
#X connect 9 0 30 1;
#X connect 10 0 32 1;
#X connect 11 0 17 1;
#X connect 12 0 20 1;
#X connect 13 0 22 1;
#X connect 14 0 24 1;
#X connect 16 0 45 0;
#X connect 17 0 34 0;
#X connect 18 0 17 0;
#X connect 19 0 27 0;
#X connect 19 1 29 0;
#X connect 19 2 31 0;
#X connect 19 3 33 0;
#X connect 19 4 18 0;
#X connect 19 5 21 0;
#X connect 19 6 23 0;
#X connect 19 7 25 0;
#X connect 20 0 34 0;
#X connect 21 0 20 0;
#X connect 22 0 34 0;
#X connect 23 0 22 0;
#X connect 24 0 34 0;
#X connect 25 0 24 0;
#X connect 26 0 34 0;
#X connect 27 0 26 0;
#X connect 28 0 34 0;
#X connect 29 0 28 0;
#X connect 30 0 34 0;
#X connect 31 0 30 0;
#X connect 32 0 34 0;
#X connect 33 0 32 0;
#X connect 34 0 16 0;
#X connect 35 0 36 0;
#X connect 36 0 5 0;
#X connect 37 0 6 0;
#X connect 38 0 1 0;
#X connect 39 0 2 0;
#X connect 40 0 42 0;
#X connect 41 0 40 0;
#X connect 42 0 46 0;
#X connect 43 0 6 1;
#X connect 45 0 15 0;
#X connect 45 1 15 1;
#X connect 46 0 47 0;
#X connect 46 1 47 1;
#X connect 49 0 47 2;
#X connect 50 0 15 2;
#X connect 51 0 35 0;
#X connect 51 0 48 0;
#X coords 0 -1 1 1 430 270 2 0 0;
