#N canvas 285 32 886 734 10;
#X obj 11 214 feigenbaum;
#X obj 111 194 metro;
#X msg 76 169 0;
#X msg 26 171 1;
#X floatatom 140 140 5 0 0 0 - - -;
#X obj 169 184 bng 15 250 50 0 empty empty empty 17 7 0 10 -262144
-1 -1;
#X floatatom 53 426 5 0 0 0 - - -;
#X obj 279 395 modal_change;
#X floatatom 277 444 5 0 0 0 - - -;
#X floatatom 297 444 5 0 0 0 - - -;
#X floatatom 317 444 5 0 0 0 - - -;
#X floatatom 341 444 5 0 0 0 - - -;
#X floatatom 363 444 5 0 0 0 - - -;
#X floatatom 386 444 5 0 0 0 - - -;
#X floatatom 409 444 5 0 0 0 - - -;
#X floatatom 431 444 5 0 0 0 - - -;
#X obj 70 675 noteout;
#X obj 50 588 + 60;
#X obj 49 620 makenote 100 4000;
#X obj 236 527 +;
#X msg 225 506 0;
#X obj 87 455 route 1 2 3 4 5 6 7 8;
#X obj 274 528 +;
#X msg 263 507 0;
#X obj 310 529 +;
#X msg 299 508 0;
#X obj 344 529 +;
#X msg 333 508 0;
#X obj 97 529 +;
#X msg 86 508 0;
#X obj 133 528 +;
#X msg 122 507 0;
#X obj 166 528 +;
#X msg 155 507 0;
#X obj 199 527 +;
#X msg 188 506 0;
#X floatatom 181 587 5 0 0 0 - - -;
#X obj 53 368 * 8;
#X obj 53 397 int;
#X obj 0 1 root_note;
#X obj 41 137 bng 25 250 50 0 empty empty empty 17 7 0 10 -258113 -1
-1;
#X obj 16 137 bng 25 250 50 0 empty empty empty 17 7 0 10 -4034 -1
-1;
#X obj 52 526 +;
#X msg 41 505 0;
#X obj 26 560 + 48;
#X obj 315 128 mode_major;
#X text 191 183 Reset;
#X connect 0 0 37 0;
#X connect 1 0 0 0;
#X connect 1 0 43 0;
#X connect 2 0 1 0;
#X connect 3 0 1 0;
#X connect 4 0 1 1;
#X connect 5 0 0 1;
#X connect 6 0 21 0;
#X connect 7 0 8 0;
#X connect 7 1 9 0;
#X connect 7 2 10 0;
#X connect 7 3 11 0;
#X connect 7 4 12 0;
#X connect 7 5 13 0;
#X connect 7 6 14 0;
#X connect 7 7 15 0;
#X connect 8 0 28 1;
#X connect 8 0 42 1;
#X connect 9 0 30 1;
#X connect 10 0 32 1;
#X connect 11 0 34 1;
#X connect 12 0 19 1;
#X connect 13 0 22 1;
#X connect 14 0 24 1;
#X connect 15 0 26 1;
#X connect 17 0 18 0;
#X connect 18 0 16 0;
#X connect 18 1 16 1;
#X connect 19 0 36 0;
#X connect 20 0 19 0;
#X connect 21 0 29 0;
#X connect 21 1 31 0;
#X connect 21 2 33 0;
#X connect 21 3 35 0;
#X connect 21 4 20 0;
#X connect 21 5 23 0;
#X connect 21 6 25 0;
#X connect 21 7 27 0;
#X connect 22 0 36 0;
#X connect 23 0 22 0;
#X connect 24 0 36 0;
#X connect 25 0 24 0;
#X connect 26 0 36 0;
#X connect 27 0 26 0;
#X connect 28 0 36 0;
#X connect 29 0 28 0;
#X connect 30 0 36 0;
#X connect 31 0 30 0;
#X connect 32 0 36 0;
#X connect 33 0 32 0;
#X connect 34 0 36 0;
#X connect 35 0 34 0;
#X connect 36 0 17 0;
#X connect 37 0 38 0;
#X connect 38 0 6 0;
#X connect 39 0 7 0;
#X connect 40 0 2 0;
#X connect 41 0 3 0;
#X connect 42 0 44 0;
#X connect 43 0 42 0;
#X connect 44 0 18 0;
#X connect 45 0 7 1;
#X coords 0 -1 1 1 430 275 2 0 0;
