#N canvas 0 22 1280 752 10;
#X floatatom 543 185 0 0 0 0 - - -;
#X floatatom 521 185 0 0 0 0 - - -;
#X floatatom 498 185 0 0 0 0 - - -;
#X floatatom 475 184 0 0 0 0 - - -;
#X floatatom 452 184 0 0 0 0 - - -;
#X floatatom 429 184 0 0 0 0 - - -;
#X floatatom 407 184 0 0 0 0 - - -;
#X floatatom 384 184 0 0 0 0 - - -;
#X obj 382 149 modal_change;
#X obj 576 526 + 60;
#X obj 576 475 tgl 15 0 empty empty empty 17 7 0 10 -262144 -1 -1 0
1;
#X obj 576 498 gate 1 0;
#X obj 647 458 comment 35 9 helvetica ? -4.7104e+06 0 0 0 13th;
#X floatatom 645 438 0 0 0 0 - - -;
#X obj 623 458 comment 35 9 helvetica ? -4.7104e+06 0 0 0 11th;
#X obj 600 458 comment 35 9 helvetica ? -4.7104e+06 0 0 0 9th;
#X floatatom 622 438 0 0 0 0 - - -;
#X floatatom 598 438 0 0 0 0 - - -;
#X floatatom 575 437 0 0 0 0 - - -;
#X obj 574 457 comment 35 9 helvetica ? -4.7104e+06 0 0 0 7th;
#X obj 501 589 noteout;
#X obj 501 557 makenote 100 400;
#X obj 501 517 + 48;
#X obj 525 457 comment 35 9 helvetica ? -4.7104e+06 0 0 0 5th;
#X obj 499 456 comment 35 9 helvetica ? -4.7104e+06 0 0 0 3rd;
#X floatatom 525 437 0 0 0 0 - - -;
#X floatatom 501 437 0 0 0 0 - - -;
#X floatatom 477 436 0 0 0 0 - - -;
#X obj 471 456 comment 35 9 helvetica ? -4.7104e+06 0 0 0 Root;
#X obj 477 386 modal_triad;
#X obj 473 366 t f b;
#X msg 591 185 1;
#X obj 647 563 out~;
#X obj 380 -15 mode_buttons;
#X obj 55 254 root_note;
#X obj 51 11 root_note;
#X connect 0 0 29 9;
#X connect 1 0 29 8;
#X connect 2 0 29 7;
#X connect 3 0 29 6;
#X connect 4 0 29 5;
#X connect 5 0 29 4;
#X connect 6 0 29 3;
#X connect 7 0 29 2;
#X connect 8 0 7 0;
#X connect 8 1 6 0;
#X connect 8 2 5 0;
#X connect 8 3 4 0;
#X connect 8 4 3 0;
#X connect 8 5 2 0;
#X connect 8 6 1 0;
#X connect 8 7 0 0;
#X connect 8 8 31 0;
#X connect 9 0 21 0;
#X connect 10 0 11 0;
#X connect 11 0 9 0;
#X connect 13 0 11 1;
#X connect 16 0 11 1;
#X connect 17 0 11 1;
#X connect 18 0 11 1;
#X connect 21 0 20 0;
#X connect 21 1 20 1;
#X connect 22 0 21 0;
#X connect 25 0 22 0;
#X connect 26 0 22 0;
#X connect 27 0 22 0;
#X connect 29 0 27 0;
#X connect 29 1 26 0;
#X connect 29 2 25 0;
#X connect 29 3 18 0;
#X connect 29 4 17 0;
#X connect 29 5 16 0;
#X connect 29 6 13 0;
#X connect 30 0 29 0;
#X connect 31 0 30 0;
#X connect 33 0 8 1;
#X connect 34 0 30 0;
#X connect 35 0 8 0;
