#N canvas 38 30 1113 744 10;
#X obj 2 0 cnv 15 510 145 empty empty empty 20 12 0 14 -204786 -66577
0;
#X obj 426 524 comment 125 9 helvetica ? 35584 0 0 0 Mode 7;
#X obj 287 523 comment 125 9 helvetica ? 35584 0 0 0 Mode 7;
#X obj 143 521 comment 125 9 helvetica ? 35584 0 0 0 Mode 7;
#X obj 54 517 comment 125 9 helvetica ? 35584 0 0 0 Mode 7;
#X obj 54 479 comment 125 9 helvetica ? 35584 0 0 0 Mode 6;
#X obj 143 472 comment 125 9 helvetica ? 35584 0 0 0 Mode 6;
#X obj 287 474 comment 125 9 helvetica ? 35584 0 0 0 Mode 6;
#X obj 426 475 comment 125 9 helvetica ? 35584 0 0 0 Mode 6;
#X obj 426 439 comment 125 9 helvetica ? 35584 0 0 0 Mode 5;
#X obj 287 438 comment 125 9 helvetica ? 35584 0 0 0 Mode 5;
#X obj 143 436 comment 125 9 helvetica ? 35584 0 0 0 Mode 5;
#X obj 54 443 comment 125 9 helvetica ? 35584 0 0 0 Mode 5;
#X obj 54 407 comment 125 9 helvetica ? 35584 0 0 0 Mode 4;
#X obj 143 400 comment 125 9 helvetica ? 35584 0 0 0 Mode 4;
#X obj 287 402 comment 125 9 helvetica ? 35584 0 0 0 Mode 4;
#X obj 426 403 comment 125 9 helvetica ? 35584 0 0 0 Mode 4;
#X obj 426 367 comment 125 9 helvetica ? 35584 0 0 0 Mode 3;
#X obj 287 366 comment 125 9 helvetica ? 35584 0 0 0 Mode 3;
#X obj 143 364 comment 125 9 helvetica ? 35584 0 0 0 Mode 3;
#X obj 54 371 comment 125 9 helvetica ? 35584 0 0 0 Mode 3;
#X obj 54 327 comment 125 9 helvetica ? 35584 0 0 0 Mode 2;
#X obj 143 328 comment 125 9 helvetica ? 35584 0 0 0 Mode 2;
#X obj 287 330 comment 125 9 helvetica ? 35584 0 0 0 Mode 2;
#X obj 426 331 comment 125 9 helvetica ? 35584 0 0 0 Mode 2;
#X obj 426 295 comment 129 9 helvetica ? 35584 0 0 0 Mode 1;
#X obj 287 294 comment 125 9 helvetica ? 35584 0 0 0 Mode 1;
#X obj 143 292 comment 125 9 helvetica ? 35584 0 0 0 Mode 1;
#X obj 54 289 comment 125 9 helvetica ? 35584 0 0 0 Mode 1;
#X obj 424 251 comment 168 12 helvetica ? 35584 0 0 0 Melodic Minor
Modes;
#X obj 288 250 comment 168 12 helvetica ? 35584 0 0 0 Harmonic Minor
Modes;
#X obj 12 491 comment 79 9 helvetica ? 35584 0 0 0 bangs when done
;
#X obj 49 247 comment 168 12 helvetica ? 35584 0 0 0 Major Modes;
#X obj 143 249 comment 168 12 helvetica ? 35584 0 0 0 Harmonic Major
Modes;
#X msg 54 307 dorian;
#X msg 54 350 phrygian;
#X msg 54 387 lydian;
#X msg 54 422 mixolydian;
#X msg 54 460 aeolian;
#X msg 54 497 locrian;
#X msg 143 272 harmonic_major;
#X msg 143 308 dorian_b5;
#X msg 143 344 phrygian_b4;
#X msg 143 380 lydian_b3;
#X msg 143 416 mixolydian_b2;
#X msg 143 452 aeolian_b1;
#X msg 143 501 locrian_b7;
#X msg 287 503 mixolydian_#1;
#X msg 287 454 lydian_#2;
#X msg 287 418 phrygian_#3;
#X msg 287 382 dorian_#4;
#X msg 287 346 ionian_#5;
#X msg 287 310 locrian_#6;
#X msg 287 274 harmonic_minor;
#X msg 426 275 melodic_minor;
#X msg 426 312 dorian_b2;
#X msg 426 347 lydian_#5;
#X msg 426 383 lydian_b7;
#X msg 426 419 mixolydian_b6;
#X msg 426 455 locrian_#2;
#X msg 426 504 locrian_b4;
#X obj 327 639 outlet;
#X obj 8 7 bng 15 250 50 0 mixolydian empty Ionian 17 7 0 14 -4032
-1 -1;
#X obj 8 27 bng 15 250 50 0 empty empty Dorian 17 7 0 14 -258113 -1
-1;
#X obj 8 47 bng 15 250 50 0 empty empty Phrygian 17 7 0 14 -258113
-1 -1;
#X obj 8 66 bng 15 250 50 0 empty empty Lydian 17 7 0 14 -4032 -1 -1
;
#X obj 8 85 bng 15 250 50 0 empty empty Mixolydian 17 7 0 14 -4032
-1 -1;
#X obj 8 104 bng 15 250 50 0 empty empty Aeolian 17 7 0 14 -258113
-1 -1;
#X obj 8 123 bng 15 250 50 0 empty empty Locrian 17 7 0 14 -159808
-1 -1;
#X msg 57 274 ionian;
#X obj 111 7 bng 15 250 50 0 mixolydian empty Harmonic_major 17 7 0
14 -204800 -1 -1;
#X obj 111 27 bng 15 250 50 0 empty empty Dorian_b5 17 7 0 14 -262144
-1 -1;
#X obj 111 47 bng 15 250 50 0 empty empty Phrygian_b4 17 7 0 14 -262144
-1 -1;
#X obj 111 66 bng 15 250 50 0 empty empty Lydian_b3 17 7 0 14 -262144
-1 -1;
#X obj 111 85 bng 15 250 50 0 empty empty Mixolydian_b2 17 7 0 14 -262144
-1 -1;
#X obj 111 104 bng 15 250 50 0 empty empty Aeolian_b1 17 7 0 14 -258113
-1 -1;
#X obj 111 123 bng 15 250 50 0 empty empty Locrian_b7 17 7 0 14 -262144
-1 -1;
#X obj 249 6 bng 15 250 50 0 empty empty Harmonic_minor 17 7 0 14 -204800
-1 -1;
#X obj 249 26 bng 15 250 50 0 empty empty Locrian_‡6 17 7 0 14 -262144
-1 -1;
#X obj 249 46 bng 15 250 50 0 empty empty Ionian_‡5 17 7 0 14 -262144
-1 -1;
#X obj 249 65 bng 15 250 50 0 empty empty Dorian_‡4 17 7 0 14 -262144
-1 -1;
#X obj 249 84 bng 15 250 50 0 empty empty Phrygian_‡3 17 7 0 14 -262144
-1 -1;
#X obj 249 103 bng 15 250 50 0 empty empty Lydian_‡2 17 7 0 14 -258113
-1 -1;
#X obj 249 122 bng 15 250 50 0 empty empty Mixolydian_‡1 17 7 0 14
-262144 -1 -1;
#X obj 384 7 bng 15 250 50 0 empty empty Melodic_minor 17 7 1 14 -204800
-1 -1;
#X obj 384 27 bng 15 250 50 0 empty empty Dorian_b2 17 7 0 14 -262144
-1 -1;
#X obj 384 47 bng 15 250 50 0 empty empty Lydian_‡5 17 7 0 14 -262144
-1 -1;
#X obj 384 66 bng 15 250 50 0 empty empty Lydian_b7 17 7 0 14 -262144
-1 -1;
#X obj 384 86 bng 15 250 50 0 empty empty Mixolydian_b6 17 7 0 14 -262144
-1 -1;
#X obj 384 104 bng 15 250 50 0 empty empty Locrian_‡2 17 7 0 14 -258113
-1 -1;
#X obj 384 123 bng 15 250 50 0 empty empty Locrian_b4 17 7 0 14 -262144
-1 -1;
#X connect 34 0 61 0;
#X connect 35 0 61 0;
#X connect 36 0 61 0;
#X connect 37 0 61 0;
#X connect 38 0 61 0;
#X connect 39 0 61 0;
#X connect 40 0 61 0;
#X connect 41 0 61 0;
#X connect 42 0 61 0;
#X connect 43 0 61 0;
#X connect 44 0 61 0;
#X connect 45 0 61 0;
#X connect 46 0 61 0;
#X connect 47 0 61 0;
#X connect 48 0 61 0;
#X connect 49 0 61 0;
#X connect 50 0 61 0;
#X connect 51 0 61 0;
#X connect 52 0 61 0;
#X connect 53 0 61 0;
#X connect 54 0 61 0;
#X connect 55 0 61 0;
#X connect 56 0 61 0;
#X connect 57 0 61 0;
#X connect 58 0 61 0;
#X connect 59 0 61 0;
#X connect 60 0 61 0;
#X connect 62 0 69 0;
#X connect 63 0 34 0;
#X connect 64 0 35 0;
#X connect 65 0 36 0;
#X connect 66 0 37 0;
#X connect 67 0 38 0;
#X connect 68 0 39 0;
#X connect 69 0 61 0;
#X connect 70 0 40 0;
#X connect 71 0 41 0;
#X connect 72 0 42 0;
#X connect 73 0 43 0;
#X connect 74 0 44 0;
#X connect 75 0 45 0;
#X connect 76 0 46 0;
#X connect 77 0 53 0;
#X connect 78 0 52 0;
#X connect 79 0 51 0;
#X connect 80 0 50 0;
#X connect 81 0 49 0;
#X connect 82 0 48 0;
#X connect 83 0 47 0;
#X connect 84 0 54 0;
#X connect 85 0 55 0;
#X connect 86 0 56 0;
#X connect 87 0 57 0;
#X connect 88 0 58 0;
#X connect 89 0 59 0;
#X connect 90 0 60 0;
#X coords 0 -1 1 1 512 145 2 0 0;
